<?xml version="1.0" encoding="UTF-8"?><svg id="Layer_2" xmlns="http://www.w3.org/2000/svg" viewBox="0 0 100 100"><g id="Layer_1-2"><rect width="100" height="100" rx="10.87" ry="10.87" fill="#2d4fb4"/><path d="M70.68,38.77c.29.4-.64,1.47-1.2,1.38-8.69-3.69-19.84-1.66-28.28,1.92-5.44,2.31-19.54,11.11-13.29,18.26,8.38,9.56,38.64.35,44.41-10.32.97-1.8.93-4.6,3.07-4.72-.34,3.01-1.16,5.23-3.08,7.61-7.25,9.02-25.05,14.29-36.2,12.64-13.93-2.07-14.45-12.19-4.18-20.04,9.95-7.61,26.9-11.69,38.75-6.73Z" fill="#fff"/><path d="M58.72,31.88v-1.81c11.54-.41,27.6,5,23.36,19.55-3.87,13.29-26.81,22.73-39.67,22.48l.03-1.42c11.26-.88,24.2-5.03,32.42-13.06,8.13-7.95,9.44-18.75-2.48-23.63-1.5-.61-6.27-2.11-7.68-2.11h-5.98Z" fill="#fff"/><path d="M34.08,52.17c4.5-5.43,13.3-8.47,20.16-9.37,3.56-.47,14.71-.88,13.01,5.4-2.13,7.88-21.18,12.22-28.27,11.58-.7-.06-3.68-.5-2.2-1.46,1.23-.79,3.48.06,5.1.04,5.47-.07,14.1-2.63,18.77-5.52,4.67-2.89,8.39-7.8.06-8.63-6.93-.69-16.17,2.22-22.03,5.86-1.65,1.03-2.57,2.96-4.6,2.1Z" fill="#fff"/><path d="M51.11,30.79l.36,1.81c-11.27,1.23-30.49,10.44-32.45,22.82-1.5,9.46,8.28,13.96,16.15,14.88l-.41,1.39c-14.44-.99-23.46-12.82-12.99-25.49,7.11-8.6,18.63-13.3,29.34-15.42Z" fill="#fff"/><path d="M42.15,54.26c-.32-.35-.48-.98-.4-1.46.46-2.69,8.88-5.18,11.34-5.35,1.63-.11,6.19-.29,5,2.45-1.4,3.23-13.59,6.91-15.94,4.36Z" fill="#fff"/><path d="M75.63,21.41c1.35-.36,1.46,1.75,2.13,2.48s2.72.97,2.72,2.01c0,1.09-1.75,1.39-2.39,1.99-.6.56-1.54,3.14-2.52,2.91-1.2-2.38-2.16-3.34-4.54-4.54-.23-.98,2.35-1.91,2.91-2.52s.84-2.11,1.68-2.33Z" fill="#fff"/><path d="M65.86,75.84c-.69-.62-2.75-.68-2.39-2.04.22-.82,1.73-1.14,2.33-1.68s1.63-2.78,2.18-2.9c.86-.19,1.44,2.24,2.16,2.9.77.71,2.02.79,2.73,1.63.2.85-2.32,1.88-2.91,2.53-.54.6-.87,2.11-1.68,2.32-1.33.35-1.65-2.08-2.41-2.75Z" fill="#fff"/><path d="M28.26,25.37c.13.09.79,2.05,1.47,2.71.72.7,2.56,1.14,2.56,2.18,0,1.1-1.91,1.18-2.46,1.72-.67.66-1.43,4.26-2.95,2.21-.41-.55-.48-1.13-1.12-1.78-.58-.58-2.74-1.57-2.83-2.15.28-1.38,1.89-1.17,2.82-2.17.59-.64,1.3-3.52,2.51-2.71Z" fill="#fff"/><path d="M56.46,32.88c-1.91,1.91-5.26-1.59-2.65-3.19,2.33-1.43,4.07,1.78,2.65,3.19Z" fill="#fff"/><path d="M72.4,40.29c3.07-.62,3.27,3.26,1.29,3.86-2.55.77-3.94-3.32-1.29-3.86Z" fill="#fff"/><path d="M40.15,70.02c1.52,1.51-.39,4.84-2.66,3.2-2.51-1.81.79-5.06,2.66-3.2Z" fill="#fff"/><path d="M33.24,54.06c3.27-1.01,3.58,3.45.93,3.86-2.36.37-2.98-3.23-.93-3.86Z" fill="#fff"/></g></svg>